HIERARCHY
ROOT Hips
{
 OFFSET 0.000000 0.000000 0.000000
 CHANNELS 6 Xposition Yposition Zposition Yrotation Xrotation Zrotation
 JOINT Chest
 {
  OFFSET 0.000000 9.585900 0.002600
  CHANNELS 3 Yrotation Xrotation Zrotation
  JOINT Chest2
  {
   OFFSET 0.000000 9.601200 -0.005300
   CHANNELS 3 Yrotation Xrotation Zrotation
   JOINT Chest3
   {
    OFFSET 0.000000 9.561800 0.000000
    CHANNELS 3 Yrotation Xrotation Zrotation
    JOINT Chest4
    {
     OFFSET 0.000000 9.552100 0.000000
     CHANNELS 3 Yrotation Xrotation Zrotation
     JOINT Neck
     {
      OFFSET 0.000000 14.453000 0.000000
      CHANNELS 3 Yrotation Xrotation Zrotation
      JOINT Head
      {
       OFFSET 0.000000 8.936500 -0.011300
       CHANNELS 3 Yrotation Xrotation Zrotation
       End Site
       {
        OFFSET 0.000000 17.073600 -0.006000
       }
      }
     }
     JOINT RightCollar
     {
      OFFSET -2.921100 9.558500 0.000000
      CHANNELS 3 Yrotation Xrotation Zrotation
      JOINT RightShoulder
      {
       OFFSET -13.519700 0.000000 0.000000
       CHANNELS 3 Yrotation Xrotation Zrotation
       JOINT RightElbow
       {
        OFFSET 0.000000 -29.696600 0.000000
        CHANNELS 3 Yrotation Xrotation Zrotation
        JOINT RightWrist
        {
         OFFSET 0.000000 -24.004700 0.000000
         CHANNELS 3 Yrotation Xrotation Zrotation
         End Site
         {
          OFFSET 0.000000 -17.728500 0.000000
         }
        }
       }
      }
     }
     JOINT LeftCollar
     {
      OFFSET 2.921100 9.558500 0.000000
      CHANNELS 3 Yrotation Xrotation Zrotation
      JOINT LeftShoulder
      {
       OFFSET 13.519700 0.000000 0.000000
       CHANNELS 3 Yrotation Xrotation Zrotation
       JOINT LeftElbow
       {
        OFFSET 0.000000 -29.696600 0.000000
        CHANNELS 3 Yrotation Xrotation Zrotation
        JOINT LeftWrist
        {
         OFFSET 0.000000 -24.004700 0.000000
         CHANNELS 3 Yrotation Xrotation Zrotation
         End Site
         {
          OFFSET 0.000000 -17.728500 0.000000
         }
        }
       }
      }
     }
    }
   }
  }
 }
 JOINT RightHip
 {
  OFFSET -7.771700 -0.012900 -0.001300
  CHANNELS 3 Yrotation Xrotation Zrotation
  JOINT RightKnee
  {
   OFFSET 0.000000 -40.869800 0.001200
   CHANNELS 3 Yrotation Xrotation Zrotation
   JOINT RightAnkle
   {
    OFFSET 0.000000 -39.717900 0.002100
    CHANNELS 3 Yrotation Xrotation Zrotation
    JOINT RightToe
    {
     OFFSET 0.000000 -4.965400 11.033500
     CHANNELS 3 Yrotation Xrotation Zrotation
     End Site
     {
      OFFSET 0.000000 -1.423100 5.872300
     }
    }
   }
  }
 }
 JOINT LeftHip
 {
  OFFSET 7.771700 -0.012900 -0.001300
  CHANNELS 3 Yrotation Xrotation Zrotation
  JOINT LeftKnee
  {
   OFFSET 0.000000 -40.869800 0.001200
   CHANNELS 3 Yrotation Xrotation Zrotation
   JOINT LeftAnkle
   {
    OFFSET 0.000000 -39.717900 0.002100
    CHANNELS 3 Yrotation Xrotation Zrotation
    JOINT LeftToe
    {
     OFFSET 0.000000 -4.965400 11.033500
     CHANNELS 3 Yrotation Xrotation Zrotation
     End Site
     {
      OFFSET 0.000000 -1.423100 5.872300
     }
    }
   }
  }
 }
}
MOTION
Frames: 9
Frame Time: 0.008333
-25.464537 47.055701 26.983727 174.840262 -28.592614 -3.177505 -0.542323 18.324489 1.540668 -0.090703 2.071050 0.182197 -0.158951 3.430239 0.302601 -0.537551 15.950299 1.364572 -0.233221 15.261354 -0.598509 -0.214970 -7.453752 -1.032224 -0.842325 0.788424 -3.185096 -3.134042 -4.455381 -14.998969 175.078359 -79.523608 -139.064027 6.303286 6.741291 -25.147238 0.185928 -1.097059 2.272029 1.519283 -0.784967 13.029034 72.704543 -67.880604 -108.516462 2.480101 12.314737 20.456435 -4.429265 -58.381187 -6.577196 176.846023 81.808666 -174.078162 -4.602255 -13.145073 -5.789864 0.005995 -0.167246 -0.017558 -4.641477 -59.420790 13.897615 -120.532891 80.873191 -123.872274 7.144201 -8.649525 3.405561 -0.003494 0.055609 -0.047177
-25.443992 47.072119 26.960523 174.834371 -28.555326 -3.173649 -0.568576 18.294252 1.531262 -0.106024 2.074164 0.186654 -0.128228 3.421987 0.298818 -0.530686 15.945578 1.378480 -0.233292 15.265579 -0.602125 -0.212966 -7.441780 -1.000782 -0.846506 0.783291 -3.176824 -3.108101 -4.460498 -15.004273 175.188617 -79.529528 -139.156560 6.319212 6.749854 -25.168040 0.169545 -1.101459 2.284699 1.534274 -0.778329 13.008433 72.699671 -67.879527 -108.509821 2.459797 12.328191 20.463001 -4.471882 -58.419660 -6.545004 176.820817 81.826018 -174.106554 -4.596121 -13.100988 -5.809953 -0.002620 -0.163095 -0.015584 -4.651137 -59.451701 13.910107 -120.536313 80.860410 -123.869187 7.178515 -8.640588 3.399143 -0.015232 0.031750 -0.047639
-25.425368 47.085868 26.941441 174.817776 -28.518725 -3.171973 -0.587953 18.267987 1.531475 -0.089361 2.066752 0.186999 -0.140310 3.421564 0.305699 -0.506887 15.938412 1.381168 -0.235487 15.271662 -0.605156 -0.211547 -7.430773 -0.981849 -0.851903 0.779373 -3.171436 -3.079805 -4.466862 -15.008745 175.093072 -79.543505 -139.071420 6.286385 6.693948 -25.151271 0.147692 -1.115564 2.317009 1.544544 -0.760123 12.981502 72.705157 -67.867864 -108.507103 2.459572 12.328946 20.483140 -4.482201 -58.448074 -6.538005 176.669527 81.847668 -174.226319 -4.592788 -13.049048 -5.853594 -0.006112 -0.170740 -0.006369 -4.663324 -59.482838 13.934215 -120.548348 80.849416 -123.869634 7.212996 -8.634762 3.386544 -0.011931 0.011795 -0.039623
-25.412969 47.096475 26.924222 174.799774 -28.495553 -3.149239 -0.583563 18.245097 1.515861 -0.096049 2.066493 0.192534 -0.138255 3.419725 0.307006 -0.496559 15.934425 1.388945 -0.237158 15.279668 -0.594560 -0.213273 -7.429476 -0.997036 -0.859265 0.770335 -3.168009 -3.044644 -4.468112 -15.014997 175.127883 -79.551978 -139.106315 6.293720 6.713513 -25.163517 0.136949 -1.121387 2.326463 1.556127 -0.760260 12.990512 72.707582 -67.845288 -108.509692 2.463706 12.333793 20.499985 -4.454186 -58.461438 -6.560706 176.593595 81.864855 -174.288722 -4.587147 -12.999523 -5.875475 -0.008560 -0.181343 -0.000807 -4.653047 -59.492892 13.915824 -120.535151 80.843870 -123.859087 7.257671 -8.645042 3.383383 -0.044932 0.005822 -0.048058
-25.401715 47.102725 26.910349 174.786043 -28.479098 -3.137519 -0.584620 18.229541 1.513116 -0.091072 2.065316 0.190380 -0.137292 3.419044 0.307615 -0.488018 15.931506 1.400679 -0.237982 15.286025 -0.586528 -0.214869 -7.412024 -0.982189 -0.860646 0.734265 -3.143465 -3.011678 -4.445704 -15.045481 175.241553 -79.560527 -139.202103 6.295483 6.721766 -25.186561 0.126704 -1.126414 2.336270 1.561372 -0.758111 12.982087 72.701192 -67.845562 -108.503648 2.475755 12.330601 20.509806 -4.433829 -58.455576 -6.570099 176.519227 81.887917 -174.346333 -4.585753 -12.963044 -5.888912 -0.005325 -0.182026 -0.001205 -4.641788 -59.506492 13.911338 -120.543620 80.827942 -123.857769 7.270006 -8.650568 3.373196 -0.049539 -0.001228 -0.046636
-25.393300 47.104021 26.899798 174.779275 -28.466465 -3.125974 -0.594839 18.218013 1.507872 -0.084470 2.064395 0.187028 -0.136252 3.418685 0.308285 -0.475438 15.927608 1.410022 -0.240567 15.297612 -0.576405 -0.209419 -7.364969 -0.944452 -0.866673 0.723253 -3.144243 -2.980138 -4.448156 -15.048674 175.213983 -79.578608 -139.183032 6.286181 6.704811 -25.189661 0.116908 -1.127008 2.340935 1.566593 -0.761321 12.980285 72.691323 -67.844979 -108.490766 2.485515 12.327887 20.513368 -4.423299 -58.438567 -6.573969 176.493118 81.914053 -174.362922 -4.587371 -12.949010 -5.896818 0.008283 -0.137901 0.000443 -4.630899 -59.518092 13.900216 -120.582728 80.825374 -123.888744 7.272476 -8.656314 3.361849 -0.057903 -0.003230 -0.042790
-25.390232 47.099299 26.894481 174.771478 -28.440843 -3.095026 -0.602786 18.194158 1.485962 -0.084061 2.062651 0.194509 -0.134365 3.417794 0.301998 -0.462531 15.923230 1.412393 -0.244208 15.309652 -0.565896 -0.216653 -7.342910 -0.933126 -0.878846 0.722625 -3.149126 -2.945126 -4.462345 -15.046642 175.213061 -79.591262 -139.183368 6.282377 6.670564 -25.164993 0.103448 -1.123879 2.338109 1.574686 -0.768515 12.989865 72.685966 -67.842187 -108.481801 2.486117 12.331533 20.515822 -4.388121 -58.443496 -6.608507 176.493569 81.936611 -174.361260 -4.591567 -12.912587 -5.893317 0.013114 -0.134953 -0.002493 -4.592966 -59.545379 13.854570 -120.643718 80.815476 -123.941642 7.295902 -8.677150 3.349878 -0.081193 0.003826 -0.045499
-25.387673 47.092331 26.889987 174.744083 -28.434124 -3.060886 -0.587793 18.188065 1.474614 -0.080557 2.061707 0.188112 -0.136698 3.413186 0.304826 -0.446803 15.923731 1.414209 -0.250457 15.318903 -0.555632 -0.220987 -7.319354 -0.922236 -0.886257 0.707185 -3.146840 -2.912245 -4.465873 -15.052070 175.234498 -79.586138 -139.193673 6.273331 6.696468 -25.182050 0.092271 -1.124399 2.352595 1.577327 -0.773905 12.986918 72.668988 -67.860061 -108.445167 2.506896 12.317124 20.539032 -4.346976 -58.432933 -6.630000 176.407839 81.957274 -174.449597 -4.599145 -12.885598 -5.881862 0.006547 -0.147993 -0.015448 -4.551597 -59.552072 13.825484 -120.623298 80.802421 -123.921249 7.279518 -8.691105 3.350021 -0.070375 0.013859 -0.049015
-25.384615 47.083283 26.888078 174.727750 -28.430706 -3.044179 -0.575400 18.186722 1.466831 -0.078862 2.060924 0.188623 -0.127533 3.412704 0.310810 -0.446301 15.920514 1.413159 -0.234702 15.337420 -0.538631 -0.237717 -7.304308 -0.915440 -0.887996 0.691889 -3.141516 -2.878939 -4.472150 -15.058189 175.182550 -79.607192 -139.163690 6.281844 6.691641 -25.159865 0.086574 -1.126293 2.372155 1.577287 -0.779977 12.982827 72.665555 -67.858301 -108.432575 2.517432 12.311387 20.547601 -4.337146 -58.416228 -6.622486 176.260097 81.980782 -174.599959 -4.622891 -12.878102 -5.876047 0.005108 -0.143673 -0.021540 -4.528393 -59.558952 13.809621 -120.608281 80.787954 -123.903920 7.301065 -8.711036 3.346759 -0.057741 0.029224 -0.048159
